<svg xmlns="http://www.w3.org/2000/svg" viewBox="0 0 40 56">
<g transform="translate(-4,0)">
    <defs><linearGradient id="berryG24" x1="0" x2="0" y1="0" y2="1">
      <stop offset="0" stop-color="#FF6B6B"/><stop offset="1" stop-color="#C0392B"/></linearGradient></defs>
    <path d="M24 8.0 C12 10.0,12 22.0,24 26.0 C36 22.0,36 10.0,24 8.0 Z" fill="url(#berryG24)" stroke="#C0392B" stroke-width="1"/>
    <g fill="#F4D03F">
      <ellipse cx="18" cy="12" rx="1.2" ry="1.8"/><ellipse cx="29" cy="10" rx="1.2" ry="1.8"/>
      <ellipse cx="22" cy="16" rx="1.2" ry="1.8"/><ellipse cx="30" cy="18" rx="1.2" ry="1.8"/>
      <ellipse cx="19" cy="20" rx="1.2" ry="1.8"/><ellipse cx="26" cy="22" rx="1.2" ry="1.8"/>
      <ellipse cx="21" cy="26" rx="1.1" ry="1.6"/><ellipse cx="27" cy="14" rx="1.1" ry="1.6"/>
    </g>
    <g fill="#6BBF59" stroke="#4E9E3F" stroke-width="0.8" stroke-linejoin="round">
      <path d="M16 6.0 L22 12.0 L18 14.0 Z"/>
      <path d="M32 6.0 L26 12.0 L30 14.0 Z"/>
      <path d="M24 2.0 L21 10.0 L27 10.0 Z"/>
    </g>
    <ellipse cx="20" cy="14" rx="2" ry="1" fill="#ffffff" opacity="0.35"/></g>
<rect x="18" y="26" width="4" height="20" fill="#FFF8F0" stroke="#C9B8B8" stroke-width="1"/>
<circle cx="20" cy="50" r="6" fill="none" stroke="#FFF8F0" stroke-width="3"/>
</svg>