<svg xmlns="http://www.w3.org/2000/svg" viewBox="0 0 400 400" fill="none">
<g stroke="#C9A84C" stroke-width="2.5" fill="none" stroke-linecap="round">
  <path d="M20 20 L150 20" />
  <path d="M20 20 L20 150" />
  <path d="M30 30 Q90 30 90 90 Q90 30 150 30" />
  <path d="M30 30 Q30 90 90 90 Q30 90 30 150" />
  <path d="M60 60 Q120 60 120 120" />
  <path d="M60 60 Q60 120 120 120" />
  <circle cx="90" cy="90" r="6" fill="#D4B96A" stroke="none"/>
  <circle cx="120" cy="120" r="4" fill="#C9A84C" stroke="none"/>
  <path d="M150 20 Q170 20 175 35 Q180 50 200 50" stroke-width="1.5"/>
  <path d="M20 150 Q20 170 35 175 Q50 180 50 200" stroke-width="1.5"/>
  <path d="M180 40 Q200 30 220 45 Q210 25 195 30" fill="#C9A84C" fill-opacity="0.5"/>
  <path d="M40 180 Q30 200 45 220 Q25 210 30 195" fill="#C9A84C" fill-opacity="0.5"/>
  <ellipse cx="55" cy="55" rx="8" ry="14" transform="rotate(-45 55 55)" fill="#D4B96A" fill-opacity="0.6"/>
</g></svg>